# AST/ASF file generated using VICON BodyLanguage
# -----------------------------------------------
:version 1.10
:name VICON
:units
  mass 1.0
  length 0.45
  angle deg
:documentation
   .ast/.asf automatically generated from VICON data using
   VICON BodyBuilder and BodyLanguage model FoxedUp or BRILLIANT.MOD
:root
   order TX TY TZ RX RY RZ
   axis XYZ
   position 0 0 0  
   orientation 0 0 0 
:bonedata
  begin
     id 1 
     name lhipjoint
     direction 0.570549 -0.739093 0.358072 
     length 2.41801 
     axis 0 0 0  XYZ
  end
  begin
     id 2 
     name lfemur
     direction 0.34202 -0.939693 0  
     length 7.44434  
     axis 0 0 20  XYZ
    dof rx ry rz
    limits (-160.0 20.0)
           (-70.0 70.0)
           (-60.0 70.0)
  end
  begin
     id 3 
     name ltibia
     direction 0.34202 -0.939693 0   
     length 7.60047   
     axis 0 0 20   XYZ
    dof rx
    limits (-10.0 170.0)
  end
  begin
     id 4 
     name lfoot
     direction 0.0909041 -0.249757 0.964032   
     length 2.03437   
     axis -90 7.62852e-016 20   XYZ
    dof rx rz
    limits (-45.0 90.0)
           (-70.0 20.0)
  end
  begin
     id 5 
     name ltoes
     direction 1.53547e-011 -4.2174e-011 1   
     length 1.02054   
     axis -90 7.62852e-016 20   XYZ
    dof rx
    limits (-90.0 20.0)
  end
  begin
     id 6 
     name rhipjoint
     direction -0.558096 -0.746754 0.361784   
     length 2.3932  
     axis 0 0 0  XYZ 
  end
  begin
     id 7 
     name rfemur
     direction -0.34202 -0.939693 0   
     length 7.3886   
     axis 0 0 -20   XYZ
    dof rx ry rz
    limits (-160.0 20.0)
           (-70.0 70.0)
           (-70.0 60.0)
  end
  begin
     id 8 
     name rtibia
     direction -0.34202 -0.939693 0   
     length 7.4839   
     axis 0 0 -20   XYZ
    dof rx
    limits (-10.0 170.0)
 end
 begin
     id 9 
     name rfoot
     direction -0.114619 -0.314914 0.942174   
     length 2.25127  
     axis -90 -7.62852e-016 -20   XYZ
    dof rx rz
    limits (-45.0 90.0)
           (-20.0 70.0)
  end
  begin
     id 10 
     name rtoes
     direction -1.53518e-011 -4.21881e-011 1   
     length 1.11821   
     axis -90 -7.62852e-016 -20   XYZ
    dof rx
    limits (-90.0 20.0)
  end
  begin
     id 11 
     name lowerback
     direction -0.00902269 0.996426 -0.0839821   
     length 2.25052   
     axis 0 0 0   XYZ
    dof rx ry rz
    limits (-20.0 45.0)
           (-30.0 30.0)
           (-30.0 30.0)
  end
  begin
     id 12 
     name upperback
     direction 0.0370973 0.999169 -0.0168941   
     length 2.24876   
     axis 0 0 0   XYZ
    dof rx ry rz
    limits (-20.0 45.0)
           (-30.0 30.0)
           (-30.0 30.0)
  end
  begin
     id 13 
     name thorax
     direction 0.0402726 0.998931 0.0227027   
     length 2.26408   
     axis 0 0 0   XYZ
    dof rx ry rz
    limits (-20.0 45.0)
           (-30.0 30.0)
           (-30.0 30.0)
  end
  begin
     id 14 
     name lowerneck
     direction -0.0733697 0.98508 0.155675   
     length 1.58204   
     axis 0 0 0   XYZ
    dof rx ry rz
    limits (-20.0 45.0)
           (-30.0 30.0)
           (-30.0 30.0)
  end
  begin
     id 15 
     name upperneck
     direction 0.0426554 0.993501 -0.105526   
     length 1.61222   
     axis 0 0 0   XYZ
    dof rx ry rz
    limits (-20.0 45.0)
           (-30.0 30.0)
           (-30.0 30.0)
  end
  begin
     id 16
     name head
     direction 0.020792 0.998384 -0.0528868  
     length 1.61527  
     axis 0 0 0   XYZ
    dof rx ry rz
    limits (-20.0 45.0)
           (-30.0 30.0)
           (-30.0 30.0)
  end
  begin
     id 17 
     name lclavicle
     direction 0.967109 0.155462 -0.201325  
     length 3.59357  
     axis 0 0 0   XYZ
    dof ry rz
    limits (-20.0 10.0)
           (0.0 20.0)
  end
  begin
     id 18 
     name lhumerus
     direction 1 -4.48968e-011 2.38195e-027   
     length 5.38154   
     axis 180 -30 -90   XYZ
    dof rx ry rz
    limits (-60.0 90.0)
           (-90.0 90.0)
           (-90.0 90.0)
  end
  begin
     id 19
     name lradius
     direction 1 -4.48961e-011 4.85371e-027   
     length 3.33312   
     axis 180 -30 -90   XYZ
    dof rx
    limits (-10.0 170.0)
  end
  begin
     id 20
     name lwrist
     direction 1 -4.48961e-011 4.76515e-027   
     length 1.66656   
     axis -3.27502e-015 90 90   XYZ
    dof ry
    limits (-180.0 0.0)
 end
  begin
     id 21 
     name lhand
     direction 1 -4.48951e-011 9.53074e-027   
     length 0.710789   
     axis -6.08098e-015 90 90   XYZ
    dof rx rz
    limits (-90.0 90.0)
           (-45.0 45.0)
  end
  begin
     id 22 
     name lfingers
     direction 1 -4.48953e-011 1.90613e-026   
     length 0.573057   
     axis -1.21619e-014 90 90   XYZ
    dof rx
    limits (0.0 90.0)
  end
  begin
     id 23
     name lthumb
     direction 0.707107 -6.34973e-011 0.707107   
     length 0.822798   
     axis -90 45 -9.86923e-015   XYZ
    dof rx rz
    limits (-45.0 45.0)
           (-45.0 45.0)
  end
  begin
     id 24 
     name rclavicle
     direction -0.9585 0.265289 -0.104398   
     length 3.42039  
     axis 0 0 0   XYZ 
    dof ry rz
    limits (-10.0 20.0)
           (-20.0 0.0)
  end
  begin
     id 25 
     name rhumerus
     direction -1 -4.48977e-011 2.21478e-027  
     length 5.16954   
     axis 180 30 90   XYZ
    dof rx ry rz
    limits (-90.0 60.0)
           (-90.0 90.0)
           (-90.0 90.0)
  end
  begin
     id 26 
     name rradius
     direction -1 -4.48967e-011 5.63677e-027   
     length 3.38287   
     axis 180 30 90   XYZ
    dof rx
    limits (-10.0 170.0)
  end
  begin
     id 27 
     name rwrist
     direction -1 -4.48967e-011 4.76501e-027   
     length 1.69144   
     axis -3.27502e-015 -90 -90   XYZ
    dof ry
    limits (-180.0 0.0)
  end
  begin
     id 28
     name rhand
     direction -1 -4.48902e-011 9.53292e-027   
     length 0.817967   
     axis -6.08098e-015 -90 -90   XYZ
    dof rx rz
    limits (-90.0 90.0)
           (-45.0 45.0)
  end
  begin
     id 29
     name rfingers
     direction -1 -4.49012e-011 1.90561e-026   
     length 0.659466   
     axis -1.21619e-014 -90 -90   XYZ
    dof rx
    limits (0.0 90.0)
  end
  begin
     id 30
     name rthumb
     direction -0.707107 -6.34944e-011 0.707107   
     length 0.946865   
     axis -90 -45 9.86923e-015   XYZ
    dof rx rz
    limits (-45.0 45.0)
           (-45.0 45.0)
  end
:hierarchy
  begin
    root lhipjoint rhipjoint lowerback
    lhipjoint lfemur
    lfemur ltibia
    ltibia lfoot
    lfoot ltoes
    rhipjoint rfemur
    rfemur rtibia
    rtibia rfoot
    rfoot rtoes
    lowerback upperback
    upperback thorax
    thorax lowerneck lclavicle rclavicle
    lowerneck upperneck
    upperneck head
    lclavicle lhumerus
    lhumerus lradius
    lradius lwrist
    lwrist lhand lthumb
    lhand lfingers
    rclavicle rhumerus
    rhumerus rradius
    rradius rwrist
    rwrist rhand rthumb
    rhand rfingers
  end

#!OML:ASF F:\twosubjects\two\wednesday\Session 1\Justin1.ASF
:FULLY-SPECIFIED
:DEGREES
1
root 3.8324 18.0427 21.5448 -176.233 5.30327 -178.139
lowerback 1.09871 1.07521 0.335243
upperback 0.851543 1.50796 2.50058
thorax 0.197439 0.780965 2.36068
lowerneck -17.0771 -3.63145 -10.183
upperneck 20.7532 -2.8129 4.13545
head 9.61645 -1.49584 2.7801
rclavicle 3.2551e-014 -4.25399e-014
rhumerus -33.7996 -8.63542 -81.2172
rradius 30.3872
rwrist -12.2899
rhand -10.3266 17.6922
rfingers 7.12502
rthumb 15.6691 -11.6933
lclavicle 3.2551e-014 -4.25399e-014
lhumerus -35.7773 15.7053 82.4207
lradius 24.7962
lwrist -13.5886
lhand 1.59777 37.6168
lfingers 7.12502
lthumb 27.1199 65.6885
rfemur -1.08092 1.52961 23.0798
rtibia 47.7134
rfoot 18.2682 1.02989
rtoes 13.0784
lfemur -24.4635 2.3415 -20.7173
ltibia 26.8596
lfoot -5.77679 -5.1061
ltoes -3.30457
2
root 3.81681 18.0612 21.3754 -176.337 5.25704 -178.565
lowerback 1.13359 0.993585 0.0895168
upperback 0.879241 1.38654 2.31142
thorax 0.2099 0.714935 2.30511
lowerneck -17.4704 -3.60315 -10.1617
upperneck 21.1262 -2.74212 4.18747
head 9.8158 -1.45518 2.80849
rclavicle -5.91384e-015 -1.47101e-014
rhumerus -33.8853 -8.09816 -81.6268
rradius 30.0181
rwrist -11.57
rhand -12.0872 17.9766
rfingers 7.12502
rthumb 13.973 -11.5338
lclavicle -5.91384e-015 -1.47101e-014
lhumerus -35.6282 15.3091 82.4537
lradius 24.8976
lwrist -13.831
lhand 1.929 37.0932
lfingers 7.12502
lthumb 27.4367 65.1152
rfemur -2.79967 1.36604 22.3869
rtibia 50.3992
rfoot 21.4683 -0.0219561
rtoes 14.7979
lfemur -23.4597 2.7297 -21.3636
ltibia 26.2879
lfoot -6.03483 -5.48104
ltoes -2.33711
3
root 3.80692 18.079 21.223 -176.392 5.33372 -179.262
lowerback 1.13678 0.885451 -0.723824
upperback 0.9785 1.22678 2.25915
thorax 0.300758 0.626996 2.71153
lowerneck -17.9075 -3.57177 -10.4208
upperneck 21.3069 -2.60913 4.29964
head 9.95708 -1.40388 2.91003
rclavicle -4.17448e-015 -1.35174e-014
rhumerus -33.6331 -7.55276 -81.7092
rradius 29.8628
rwrist -11.3344
rhand -13.3666 16.7038
rfingers 7.12502
rthumb 12.7398 -12.8875
lclavicle -4.17448e-015 -1.35174e-014
lhumerus -35.3614 15.0288 82.8028
lradius 25.2237
lwrist -13.6971
lhand 2.26847 37.077
lfingers 7.12502
lthumb 27.7613 65.0471
rfemur -4.75175 1.27596 21.405
rtibia 53.2174
rfoot 24.266 -1.38062
rtoes 15.8114
lfemur -22.5657 2.97305 -22.2429
ltibia 25.6493
lfoot -6.2052 -5.69057
ltoes -0.497605
4
root 3.79833 18.0927 21.0762 -176.56 5.3964 -180.262
lowerback 1.25921 0.89109 -1.85275
upperback 1.00394 1.21089 2.08028
thorax 0.240465 0.608597 3.1615
lowerneck -17.7645 -3.54273 -10.2873
upperneck 21.1146 -2.57393 4.08104
head 9.85448 -1.40177 2.81228
rclavicle -4.52235e-015 -2.62396e-014
rhumerus -33.6302 -7.46575 -81.5563
rradius 29.7058
rwrist -11.0788
rhand -12.5791 13.883
rfingers 7.12502
rthumb 13.4989 -15.6595
lclavicle -4.52235e-015 -2.62396e-014
lhumerus -35.213 14.2338 83.2039
lradius 25.6255
lwrist -13.3249
lhand 2.35623 37.315
lfingers 7.12502
lthumb 27.8452 65.2715
rfemur -6.60172 1.08525 20.079
rtibia 55.862
rfoot 26.4458 -2.54931
rtoes 13.5652
lfemur -21.6494 2.89808 -23.408
ltibia 25.1706
lfoot -6.56176 -5.64728
ltoes 0.309593
5
root 3.78912 18.1065 20.9182 -176.844 4.87353 -180.553
lowerback 1.40391 0.721305 -2.0865
upperback 1.08057 0.979427 2.02357
thorax 0.251194 0.490355 3.23647
lowerneck -17.5375 -3.50543 -10.0467
upperneck 20.9795 -2.53188 3.75313
head 9.75373 -1.3984 2.6614
rclavicle 2.66868e-014 4.6118e-014
rhumerus -33.6821 -7.60127 -81.5178
rradius 29.5463
rwrist -10.6704
rhand -10.9262 13.7547
rfingers 7.12502
rthumb 15.0916 -15.6752
lclavicle 2.66868e-014 4.6118e-014
lhumerus -35.1015 13.5637 83.3885
lradius 25.9524
lwrist -13.2016
lhand 2.494 37.0636
lfingers 7.12502
lthumb 27.9769 64.9987
rfemur -8.07579 0.309681 19.6759
rtibia 58.239
rfoot 27.4471 -2.42004
rtoes 7.61278
lfemur -20.5228 2.72743 -23.8123
ltibia 24.6877
lfoot -6.88931 -6.0345
ltoes -0.283213
6
root 3.77504 18.1146 20.7682 -176.762 5.14943 -180.514
lowerback 1.34342 0.647725 -1.95061
upperback 1.05097 0.884766 2.07895
thorax 0.262593 0.444269 3.21877
lowerneck -17.6869 -3.37639 -10.3052
upperneck 21.2593 -2.26127 3.8194
head 9.86591 -1.28442 2.7693
rclavicle 2.58917e-014 5.32743e-014
rhumerus -33.6212 -6.84244 -81.9154
rradius 29.5534
rwrist -10.4231
rhand -13.2955 19.1422
rfingers 7.12502
rthumb 12.8083 -10.4449
lclavicle 2.58917e-014 5.32743e-014
lhumerus -35.0507 13.6193 83.396
lradius 26.2344
lwrist -13.1312
lhand 2.54256 36.8152
lfingers 7.12502
lthumb 28.0234 64.7428
rfemur -10.0284 0.137175 19.5628
rtibia 60.5467
rfoot 26.9493 -0.979121
rtoes 0.972206
lfemur -19.8377 3.06477 -23.884
ltibia 24.2902
lfoot -7.15604 -6.14433
ltoes -0.766319
7
root 3.76993 18.1218 20.6092 -177.352 4.19575 -180.881
lowerback 2.15754 0.129153 -2.19798
upperback 0.979644 0.18007 2.05681
thorax -0.217378 0.098819 3.34227
lowerneck -17.7021 -3.13639 -10.5496
upperneck 21.5467 -1.86654 3.96093
head 9.94507 -1.10211 2.92113
rclavicle -1.44616e-014 6.36111e-015
rhumerus -33.8647 -6.0589 -82.1559
rradius 29.674
rwrist -10.0627
rhand -15.472 20.0838
rfingers 7.12502
rthumb 10.7095 -9.62326
lclavicle -1.44616e-014 6.36111e-015
lhumerus -35.369 13.6278 83.3107
lradius 26.5813
lwrist -12.879
lhand 2.36094 36.8368
lfingers 7.12502
lthumb 27.8497 64.7926
rfemur -10.7775 -0.95434 19.0922
rtibia 62.6118
rfoot 24.9877 -1.48677
rtoes 2.80851
lfemur -18.4346 2.4282 -24.2955
ltibia 23.9675
lfoot -7.44609 -6.48729
ltoes 0.267236
8
root 3.75959 18.1266 20.478 -177.053 4.07596 -181.361
lowerback 2.24251 0.070583 -2.64765
upperback 0.768321 0.0802678 1.9252
thorax -0.474619 0.050781 3.46268
lowerneck -17.6577 -3.06666 -10.2449
upperneck 21.4336 -1.80297 3.70056
head 9.88504 -1.07745 2.78472
rclavicle 5.71506e-015 1.11319e-014
rhumerus -33.9806 -6.23866 -82.046
rradius 29.708
rwrist -9.70178
rhand -15.8455 21.0379
rfingers 7.12502
rthumb 10.3492 -8.68739
lclavicle 5.71506e-015 1.11319e-014
lhumerus -35.2979 13.019 83.4312
lradius 26.9764
lwrist -12.534
lhand 2.26997 37.062
lfingers 7.12502
lthumb 27.7628 65.0319
rfemur -12.9264 -1.45091 18.4042
rtibia 64.734
rfoot 22.904 -3.25367
rtoes 10.4687
lfemur -18.1026 1.86368 -24.8715
ltibia 23.6032
lfoot -7.6498 -6.1346
ltoes 1.46792
9
root 3.75937 18.1299 20.3471 -177.012 4.01976 -181.857
lowerback 2.39832 0.10149 -3.27917
upperback 0.6956 0.0960642 1.81465
thorax -0.638329 0.0601903 3.70504
lowerneck -17.4052 -3.06689 -10.0017
upperneck 21.261 -1.86421 3.5432
head 9.7766 -1.10236 2.67819
rclavicle 4.17448e-015 -2.62396e-014
rhumerus -34.0584 -6.81197 -81.815
rradius 29.5986
rwrist -9.53147
rhand -15.9152 20.4547
rfingers 7.12502
rthumb 10.282 -9.27395
lclavicle 4.17448e-015 -2.62396e-014
lhumerus -35.1245 12.3576 83.5747
lradius 27.3661
lwrist -12.1526
lhand 2.07406 37.2519
lfingers 7.12502
lthumb 27.5754 65.2518
rfemur -14.7489 -1.98555 17.8575
rtibia 66.6016
rfoot 19.8669 -3.67126
rtoes 12.4046
lfemur -17.4239 1.95868 -25.4711
ltibia 23.0909
lfoot -7.85626 -6.35344
ltoes 1.81674
10
root 3.75321 18.1269 20.1972 -177.246 4.28416 -182.147
lowerback 2.54135 0.209169 -3.57087
upperback 0.648121 0.223907 1.72588
thorax -0.779254 0.126795 3.77411
lowerneck -16.8311 -3.01956 -10.0387
upperneck 21.2112 -1.86014 3.66752
head 9.65335 -1.08279 2.73113
rclavicle -9.49197e-015 9.54166e-015
rhumerus -34.3047 -7.44397 -81.5181
rradius 29.3338
rwrist -9.07377
rhand -15.1828 19.2008
rfingers 7.12502
rthumb 10.9885 -10.4916
lclavicle -9.49197e-015 9.54166e-015
lhumerus -35.1916 11.9435 83.5755
lradius 27.7208
lwrist -11.873
lhand 1.78033 37.0871
lfingers 7.12502
lthumb 27.2945 65.1315
rfemur -16.1321 -2.1875 17.4911
rtibia 68.1636
rfoot 16.7695 -3.37283
rtoes 10.8569
lfemur -16.4282 2.64772 -25.9205
ltibia 22.639
lfoot -8.42877 -6.68576
ltoes -0.693694
11
root 3.74549 18.1126 20.0455 -177.331 4.4071 -182.173
lowerback 2.39214 0.265703 -3.52189
upperback 0.735597 0.306888 1.71788
thorax -0.613065 0.16376 3.73597
lowerneck -16.5365 -2.99264 -9.93668
upperneck 21.0273 -1.84524 3.51749
head 9.53063 -1.0818 2.66154
rclavicle 9.0447e-015 -1.74931e-014
rhumerus -34.3355 -8.01424 -81.2816
rradius 29.2819
rwrist -9.02385
rhand -12.6056 18.7254
rfingers 7.12502
rthumb 13.4734 -10.8188
lclavicle 9.0447e-015 -1.74931e-014
lhumerus -34.9018 11.6692 83.6369
lradius 27.9998
lwrist -11.6799
lhand 1.72865 36.9584
lfingers 7.12502
lthumb 27.245 65.0106
rfemur -17.5639 -2.39072 17.4431
rtibia 69.3638
rfoot 14.4112 -3.54769
rtoes 10.7443
lfemur -15.6276 3.1611 -26.0909
ltibia 22.1985
lfoot -8.9872 -6.7914
ltoes -4.07421
